<?xml version="1.0" encoding="UTF-8"?>
<svg xmlns="http://www.w3.org/2000/svg" xmlns:xlink="http://www.w3.org/1999/xlink" width="20px" height="20px" viewBox="0 0 20 20" version="1.1">
<g id="surface1">
<path style=" stroke:none;fill-rule:nonzero;fill:rgb(30.980392%,21.568627%,54.509804%);fill-opacity:1;" d="M 11.402344 1.472656 C 10.027344 2.722656 9.839844 3.160156 10.402344 3.785156 C 11.027344 4.410156 11.464844 4.285156 12.652344 3.222656 C 14.402344 1.535156 15.714844 1.472656 17.027344 2.972656 C 18.652344 4.722656 18.339844 5.722656 15.089844 8.910156 C 12.089844 11.847656 10.214844 12.472656 8.839844 11.097656 C 7.839844 10.097656 7.027344 11.035156 7.839844 12.347656 C 8.277344 12.972656 9.527344 13.472656 10.839844 13.597656 C 12.964844 13.785156 13.527344 13.472656 16.589844 10.410156 C 20.527344 6.472656 21.027344 4.097656 18.402344 1.535156 C 16.464844 -0.464844 13.714844 -0.464844 11.402344 1.472656 Z M 11.402344 1.472656 "/>
<path style=" stroke:none;fill-rule:nonzero;fill:rgb(30.980392%,21.568627%,54.509804%);fill-opacity:1;" d="M 3.277344 9.535156 C 0.652344 12.222656 -0.0351562 13.347656 -0.0351562 14.910156 C -0.0351562 17.535156 2.339844 19.972656 4.902344 19.972656 C 7.402344 19.972656 10.589844 17.285156 9.527344 16.160156 C 8.902344 15.535156 8.464844 15.660156 7.277344 16.722656 C 5.527344 18.410156 4.214844 18.472656 2.902344 16.972656 C 1.277344 15.160156 1.589844 14.222656 4.902344 10.972656 C 7.777344 8.160156 8.152344 7.972656 10.214844 8.347656 C 11.964844 8.660156 12.464844 8.597656 12.464844 7.910156 C 12.464844 6.785156 11.152344 6.222656 8.589844 6.222656 C 7.089844 6.222656 5.902344 6.972656 3.277344 9.535156 Z M 3.277344 9.535156 "/>
</g>
</svg>
